<svg width="72" height="72" viewBox="0 0 72 72" fill="none" xmlns="http://www.w3.org/2000/svg">
<rect width="72" height="72" fill=""/>
<path d="M23.2999 53.7H20.7V55.6H23.2999V53.7Z" fill="#363636"/>
<path d="M24.9 42.9C24.4 42.6 23.6 42.4 22.6 42.4C20.6 42.4 19.6 43.2 19.6 44.7V47.9H22.1V44.5C22.1 44.2 22.2 44.1 22.5 44.1C22.8 44.1 22.9 44.2 22.9 44.5V46.9C22.9 47.4 22.6 48 22 48.7C21.3 49.6 20.9 50.2 20.8 50.7C20.7 51.1 20.6 51.8 20.6 52.8V53.2H23.2C23.2 52.2 23.2 51.5 23.3 51.1C23.3 50.7 23.6 50.3 24.1 49.8C24.7 49.1 25.1 48.5 25.3 48.1C25.5 47.7 25.6 47.2 25.6 46.7V45C25.6 44 25.3 43.3 24.8 43L24.9 42.9Z" fill="#363636"/>
<path d="M35.4001 18.6C35.4001 18.3 35.5 18.2 35.8 18.2C36.1 18.2 36.2001 18.3 36.2001 18.6V21C36.2001 21.5 35.9 22.1 35.3 22.8C34.6 23.7 34.2001 24.3 34.1001 24.8C34.0001 25.2 33.9001 25.9 33.9001 26.9V27.3H36.5001C36.5001 26.3 36.5001 25.6 36.6001 25.2C36.6001 24.8 36.9001 24.4 37.4001 23.9C38.0001 23.2 38.4001 22.6 38.6001 22.2C38.8001 21.8 38.9001 21.3 38.9001 20.8V19.1C38.9001 18.1 38.6001 17.4 38.1001 17.1C37.6001 16.8 36.8 16.6 35.8 16.6C33.8 16.6 32.8 17.4 32.8 18.9V22.1H35.3V18.7L35.4001 18.6Z" fill="#363636"/>
<path d="M36.6 27.7H34V29.6H36.6V27.7Z" fill="#363636"/>
<path d="M0 0V72H72V0H0ZM23.9 15.4C23.9 12.9 25.9 10.9 28.4 10.9H43.6C46.1 10.9 48.1 12.9 48.1 15.4V30.6C48.1 33.1 46.1 35.1 43.6 35.1H28.4C25.9 35.1 23.9 33.1 23.9 30.6V15.4ZM34.7 56.6C34.7 59.1 32.7 61.1 30.2 61.1H15C12.5 61.1 10.5 59.1 10.5 56.6V41.4C10.5 38.9 12.5 36.9 15 36.9H30.2C32.7 36.9 34.7 38.9 34.7 41.4V56.6ZM61.3 56.6C61.3 59.1 59.3 61.1 56.8 61.1H41.6C39.1 61.1 37.1 59.1 37.1 56.6V41.4C37.1 38.9 39.1 36.9 41.6 36.9H56.8C59.3 36.9 61.3 38.9 61.3 41.4V56.6Z" fill="#363636"/>
<path d="M51.4999 42.9C50.9999 42.6 50.2 42.4 49.2 42.4C47.2 42.4 46.2 43.2 46.2 44.7V47.9H48.7V44.5C48.7 44.2 48.7999 44.1 49.0999 44.1C49.3999 44.1 49.4999 44.2 49.4999 44.5V46.9C49.4999 47.4 49.1999 48 48.5999 48.7C47.8999 49.6 47.4999 50.2 47.3999 50.7C47.2999 51.1 47.2 51.8 47.2 52.8V53.2H49.7999C49.7999 52.2 49.7999 51.5 49.8999 51.1C49.8999 50.7 50.2 50.3 50.7 49.8C51.3 49.1 51.6999 48.5 51.8999 48.1C52.0999 47.7 52.2 47.2 52.2 46.7V45C52.2 44 51.8999 43.3 51.3999 43L51.4999 42.9Z" fill="#363636"/>
<path d="M49.9001 53.7H47.3V55.6H49.9001V53.7Z" fill="#363636"/>
</svg>
